inDegrees=yes
name=ik_Xsens_quaternion
DataType=double
version=3
OpenSimVersion=4.4-2022-07-23-0e9fedc
endheader
time	pelvis_tilt	pelvis_list	pelvis_rotation	pelvis_tx	pelvis_ty	pelvis_tz	hip_flexion_r	hip_adduction_r	hip_rotation_r	knee_angle_r	knee_angle_r_beta	ankle_angle_r	subtalar_angle_r	mtp_angle_r	hip_flexion_l	hip_adduction_l	hip_rotation_l	knee_angle_l	knee_angle_l_beta	ankle_angle_l	subtalar_angle_l	mtp_angle_l	lumbar_extension	lumbar_bending	lumbar_rotation	arm_flex_r	arm_add_r	arm_rot_r	elbow_flex_r	pro_sup_r	wrist_flex_r	wrist_dev_r	arm_flex_l	arm_add_l	arm_rot_l	elbow_flex_l	pro_sup_l	wrist_flex_l	wrist_dev_l
0	0	0	0	0	0.93	0	0	0	0	2.426570649309934e-20	0	0	0	0	0	0	0	2.426570649309934e-20	0	0	0	0	0	0	0	0	0	0	2.426570649309934e-20	2.426570649309934e-20	0	0	0.00024205481143025	-0.0002941224225556458	-47.32739758522504	-8.35937170372787e-05	0	0	0
0.01666666666666667	0	0	0	0	0.93	0	0	0	0	0	0	0	0	0	0	0	0	0	-4.235164736271502e-22	0	0	0	0	0	0	0	0	0	0	0	0	0	-0.008021609260739731	-0.09489947080675137	-47.32224255746534	-0.09049831974716646	-1.748580300445351e-16	0	0
0.03333333333333333	0	0	0	0	0.93	0	0	0	0	2.426570649309934e-20	0	0	0	0	0	0	0	2.426570649309934e-20	-1.88079096131566e-37	0	0	0	0	0	0	0	0	0	2.426570649309934e-20	2.426570649309934e-20	0	0	-0.003185684974477404	-0.1220547828163788	-47.38786205491401	-0.1494653782231178	-1.748580300445351e-16	0	0
0.05	0	0	0	0	0.93	0	0	0	0	0	0	0	0	0	0	0	0	0	-9.4039548065783e-38	0	0	0	0	0	0	0	0	0	6.098277438416091e-38	0	0	0	0.006496329687958347	-0.07166010006391529	-47.44553139369316	-0.1223115423172633	-1.748580300445351e-16	0	0
0.06666666666666667	0	0	0	0	0.93	0	0	0	0	2.426570649309934e-20	0	0	0	0	0	0	0	2.426570649309934e-20	-9.4039548065783e-38	0	0	0	0	0	0	0	0	0	2.426570649309934e-20	2.426570649309934e-20	0	0	0.04514955939235513	-0.01002728983212201	-47.49707492199175	-0.08950857748790782	-1.748580300445351e-16	0	0
0.08333333333333333	-5.517382872562696e-32	0	0	0	0.93	0	-1.724182147675842e-34	0	0	2.426570649309934e-20	0	0	0	0	-1.724182147675842e-34	0	0	2.426570649309934e-20	-9.4039548065783e-38	0	0	0	-5.517382872562696e-32	0	0	0	1.500228240097588e-34	0	2.426570649309934e-20	2.426570649309934e-20	0	0	0.1159076833589682	0.03983254246429715	-47.53099437475362	-0.06207544979773584	-1.748580300445351e-16	0	0
0.1	-1.939974828090444e-32	0	-2.758691436281348e-33	0	0.93	0	-1.706942033141134e-38	0	0	2.426570649309934e-20	0	0	0	0	-1.706942033141134e-38	0	0	2.426570649309934e-20	-9.4039548065783e-38	0	0	0	-1.939974828090444e-32	0	-2.758691436281348e-33	0	1.485227442924068e-38	0	2.426570649309934e-20	2.426570649309934e-20	0	0	0.199526672378952	0.08354983983926202	-47.54468681077805	-0.04224398600158333	-1.748580300445351e-16	0	0
0.1166666666666667	-1.920577000386554e-36	-1.301757521495261e-32	-2.731107253025814e-37	0	0.93	0	-2.155227853582233e-35	0	0	2.426570649309934e-20	0	0	0	0	-2.155227853582233e-35	0	0	2.426570649309934e-20	-9.4039548065783e-38	0	0	0	-1.920577000386554e-36	-1.301757521495261e-32	-2.731107253025814e-37	0	1.470376638871502e-42	0	2.426570649309934e-20	2.426570649309934e-20	0	0	0.2909057001152016	0.1345639838576333	-47.5362549994503	-0.02706165409945411	-1.748580300445351e-16	0	0
0.1333333333333333	-1.901373131755839e-40	5.159659030677312e-34	-2.703798884294471e-41	0	0.93	0	-2.13367770872415e-39	0	0	2.426570649309934e-20	0	0	0	0	-2.13367770872415e-39	0	0	2.426570649309934e-20	-9.4039548065783e-38	0	0	0	-1.901373131755839e-40	5.159659030677312e-34	-2.703798884294471e-41	0	1.455674328157117e-46	0	2.426570649309934e-20	2.426570649309934e-20	0	0	0.3862461950303366	0.1921671692169032	-47.51449288117835	-0.01167801620883675	-1.748580300445351e-16	0	0
0.15	-1.882361282799607e-44	5.108067548438198e-38	5.517382872560019e-33	0	0.93	0	-2.112343043979984e-43	0	0	2.426570649309934e-20	3.238451992361868e-39	0	0	0	-2.112343043979984e-43	0	0	2.426570649309934e-20	-9.080109607342113e-38	0	0	0	-1.882361282799607e-44	5.108067548438198e-38	5.517382872560019e-33	0	1.441119025994542e-50	0	2.426570649309934e-20	2.426570649309934e-20	0	0	0.4767397935345906	0.245092078813151	-47.50053125134326	0.005746724607425757	-1.748580300445351e-16	0	0
0.1666666666666667	-1.863539533511189e-48	5.0569919299458e-42	5.462214506049043e-37	0	0.93	0	-2.091221704761936e-47	0	0	2.426570649309934e-20	3.238451992361868e-39	0	0	0	-2.091221704761936e-47	0	0	2.426570649309934e-20	-9.080109607342113e-38	0	0	0	-1.863539533511189e-48	5.0569919299458e-42	5.462214506049043e-37	0	1.426709262443882e-54	0	2.426570649309934e-20	2.426570649309934e-20	0	0	0.5655560923527705	0.2897268008216332	-47.483486312797	0.02510338460652557	-1.748580300445351e-16	0	0
0.1833333333333333	-1.844905983082077e-52	5.006427017073398e-46	5.407597768586372e-41	0	0.93	0	-2.07031155802591e-51	0	0	2.426570649309934e-20	3.238451992361868e-39	0	0	0	-2.07031155802591e-51	0	0	2.426570649309934e-20	-9.080109607342113e-38	0	0	0	-1.844905983082077e-52	5.006427017073398e-46	5.407597768586372e-41	0	1.412443582263027e-58	0	2.426570649309934e-20	2.426570649309934e-20	0	0	0.6515270725576302	0.322433935771429	-47.47852350988695	0.04678602989677758	-1.748580300445351e-16	0	0
0.2	-8.107065497526371e-72	4.956367703270417e-50	2.228453195417967e-60	0	0.93	0	-2.049610492056183e-55	0	0	2.426570649309934e-20	3.238451992361868e-39	0	0	0	-2.049610492056183e-55	0	0	2.426570649309934e-20	-9.080109607342113e-38	0	0	0	-8.107065497526371e-72	4.956367703270417e-50	2.228453195417967e-60	0	1.398320544760962e-62	0	2.426570649309934e-20	2.426570649309934e-20	0	0	0.7305766745391696	0.343034765819898	-47.50077839323146	0.06732153444567573	-1.748580300445351e-16	0	0
0.2166666666666667	-8.026002868553871e-76	2.075408767366751e-69	9.06035173407909e-80	0	0.93	0	-2.029116416252077e-59	0	0	2.426570649309934e-20	3.238451992361868e-39	0	0	0	-2.029116416252077e-59	0	0	2.426570649309934e-20	-9.080109607342113e-38	0	0	0	-8.026002868553871e-76	2.075408767366751e-69	9.06035173407909e-80	0	1.384338723652105e-66	0	2.426570649309934e-20	2.426570649309934e-20	0	0	0.7986966403680837	0.3613161182566029	-47.54686282294879	0.08639789085432528	-1.748580300445351e-16	0	0
0.2333333333333333	-4.023604442550828e-95	8.438110103904354e-89	3.274417677857119e-99	0	0.93	0	-9.664375183017696e-79	0	0	2.426570649309934e-20	3.238451992361868e-39	0	0	0	-9.664375183017696e-79	0	0	2.426570649309934e-20	-9.080109607342113e-38	0	0	0	-4.023604442550828e-95	8.438110103904354e-89	3.274417677857119e-99	0	5.760416497598705e-86	0	2.426570649309934e-20	2.426570649309934e-20	0	0	0.8693662254943449	0.3877681853170633	-47.57027342428159	0.09552376662055485	-1.748580300445351e-16	0	0
0.25	-1.454133559278645e-114	3.049539102108329e-108	1.331299034984111e-118	0	0.93	0	-3.929301213428543e-98	0	0	2.426570649309934e-20	3.238451992361868e-39	0	0	0	-3.929301213428543e-98	0	0	2.426570649309934e-20	-9.080109607342113e-38	0	0	0	-1.454133559278645e-114	3.049539102108329e-108	1.331299034984111e-118	0	2.342046030419196e-105	0	2.426570649309934e-20	2.426570649309934e-20	0	0	0.9501887104750762	0.4116553182766495	-47.56352178249934	0.08011261789922584	-1.748580300445351e-16	0	0
0.2666666666666667	-5.912155365202447e-134	1.239868844844504e-127	4.811324353192095e-138	0	0.93	0	-1.420052303983052e-117	0	0	2.426570649309934e-20	3.238451992361868e-39	0	0	0	-1.420052303983052e-117	0	0	2.426570649309934e-20	-9.080109607342113e-38	0	0	0	-5.912155365202447e-134	1.239868844844504e-127	4.811324353192095e-138	0	8.464171314138482e-125	0	2.426570649309934e-20	2.426570649309934e-20	0	0	1.029877701387132	0.4147355521307113	-47.59277719216459	0.06355171773107195	-1.748580300445351e-16	0	0
